<svg xmlns="http://www.w3.org/2000/svg" xmlns:xlink="http://www.w3.org/1999/xlink" id="Laag_1" x="0px" y="0px" viewBox="0 0 1161.39 212.6" style="enable-background:new 0 0 1161.39 212.6;" xml:space="preserve"><g>	<g id="Laag_1_00000062184255415991473140000007717931609179539892_">		<g>			<g>				<path style="fill:#001475;" d="M359.87,0v134.53H282.3c-13.98,0-25.33-11.53-25.33-25.33V58.53c0-13.8,11.36-25.33,25.33-25.33     h50.84V0H359.87z M283.87,107.8h49.27V59.93h-49.27V107.8z"></path>				<path style="fill:#001475;" d="M450.89,33.19c13.98,0,25.33,11.53,25.33,25.33v50.67c0,13.8-11.36,25.33-25.33,25.33h-52.06     c-13.8,0-25.33-11.53-25.33-25.33V58.52c0-13.8,11.53-25.33,25.33-25.33L450.89,33.19L450.89,33.19z M400.22,107.8h49.27V59.93     h-49.27V107.8z"></path>				<path style="fill:#001475;" d="M570.38,33.19v26.73H515.7v74.6h-26.73V58.53c0-13.8,11.53-25.33,25.51-25.33h55.91L570.38,33.19     z"></path>				<path style="fill:#001475;" d="M727.62,58.53v76h-26.56v-74.6h-33.54v74.6h-26.91v-74.6h-33.54v74.6h-26.73V33.19h121.95     c13.98,0,25.33,11.53,25.33,25.33L727.62,58.53z"></path>				<path style="fill:#001475;" d="M847.29,58.53v76h-77.4c-13.98,0-25.33-11.53-25.33-25.33V70.41h76V59.93h-76V33.2h77.4     C835.94,33.2,847.29,44.73,847.29,58.53z M820.56,93.82h-49.27v13.98h49.27V93.82z"></path>				<path style="fill:#001475;" d="M891.84,59.93v47.87h37.56v26.73h-38.79c-14.15,0-25.51-11.53-25.51-25.33V3.15h26.73V33.2h37.56     v26.73h-37.56H891.84z"></path>				<path style="fill:#001475;" d="M1045.4,58.53v38.79h-76v10.48h76v26.73H968c-13.8,0-25.33-11.53-25.33-25.33V58.53     c0-13.8,11.53-25.33,25.33-25.33h52.06c13.98,0,25.33,11.53,25.33,25.33H1045.4z M1018.67,73.9V59.92H969.4V73.9H1018.67z"></path>				<path style="fill:#001475;" d="M1085.06,59.93v47.87h76v26.73h-77.4c-13.8,0-25.33-11.53-25.33-25.33V58.53     c0-13.8,11.53-25.33,25.33-25.33h77.22v26.73C1160.88,59.93,1085.06,59.93,1085.06,59.93z"></path>			</g>			<g>				<path style="fill:#90BD1E;" d="M263.03,185.73v10.17h16.68v5.92h-22.86v-37.65h22.59v5.92h-16.41v9.79h15.06v5.86h-15.06     L263.03,185.73z"></path>				<path style="fill:#90BD1E;" d="M320.64,174.22c3.12,0,5.62,1,7.5,2.99s2.82,4.69,2.82,8.1v16.51h-5.81V185.9     c0-2.01-0.54-3.55-1.61-4.63c-1.08-1.08-2.55-1.61-4.41-1.61c-2.12,0-3.78,0.66-5,1.96c-1.22,1.31-1.83,3.24-1.83,5.78v14.42     h-5.81v-26.9h5.81v3.44C314.09,175.6,316.87,174.22,320.64,174.22L320.64,174.22z"></path>				<path style="fill:#90BD1E;" d="M369.06,195.36l7.48-20.44h6.35l-10.49,26.9h-6.72l-10.49-26.9h6.35l7.53,20.44H369.06z"></path>				<path style="fill:#90BD1E;" d="M413.54,169.81c-0.72,0.72-1.58,1.08-2.58,1.08s-1.88-0.36-2.64-1.08     c-0.72-0.75-1.08-1.63-1.08-2.64s0.36-1.86,1.08-2.58c0.72-0.75,1.6-1.13,2.64-1.13s1.92,0.38,2.64,1.13     c0.72,0.72,1.08,1.58,1.08,2.58s-0.38,1.88-1.13,2.64H413.54z M413.86,201.81h-5.81v-26.9h5.81V201.81z"></path>				<path style="fill:#90BD1E;" d="M447.91,174.92v4.52c1.47-3.33,4.23-5,8.28-5v6.29c-2.19-0.14-4.12,0.39-5.81,1.61     c-1.65,1.18-2.48,3.16-2.48,5.92v13.55h-5.81v-26.9h5.81L447.91,174.92z"></path>				<path style="fill:#90BD1E;" d="M493.47,202.51c-3.98,0-7.33-1.36-10.06-4.09c-2.76-2.76-4.14-6.11-4.14-10.06     s1.38-7.3,4.14-10.06s6.08-4.09,10.06-4.09s7.33,1.36,10.06,4.09c2.76,2.76,4.14,6.11,4.14,10.06s-1.38,7.3-4.14,10.06     C500.81,201.15,497.45,202.51,493.47,202.51z M485.08,188.37c0,2.44,0.81,4.46,2.42,6.08c1.61,1.61,3.6,2.42,5.97,2.42     s4.36-0.81,5.97-2.42c1.61-1.61,2.42-3.64,2.42-6.08s-0.81-4.46-2.42-6.08c-1.61-1.61-3.6-2.42-5.97-2.42s-4.36,0.81-5.97,2.42     C485.89,183.9,485.08,185.93,485.08,188.37z"></path>				<path style="fill:#90BD1E;" d="M548.61,174.22c3.12,0,5.62,1,7.5,2.99s2.82,4.69,2.82,8.1v16.51h-5.81V185.9     c0-2.01-0.54-3.55-1.61-4.63c-1.08-1.08-2.55-1.61-4.41-1.61c-2.12,0-3.78,0.66-5,1.96c-1.22,1.31-1.83,3.24-1.83,5.78v14.42     h-5.81v-26.9h5.81v3.44C542.06,175.6,544.84,174.22,548.61,174.22L548.61,174.22z"></path>				<path style="fill:#90BD1E;" d="M616.06,174.22c3.05,0,5.5,0.99,7.37,2.96c1.86,1.97,2.8,4.63,2.8,7.96v16.68h-5.81v-16.3     c0-1.83-0.47-3.26-1.4-4.3c-0.93-1.04-2.21-1.56-3.82-1.56c-1.83,0-3.26,0.6-4.3,1.8s-1.56,2.97-1.56,5.3v15.06h-5.81v-16.3     c0-1.86-0.44-3.31-1.32-4.33s-2.12-1.53-3.74-1.53c-1.79,0-3.24,0.61-4.33,1.83s-1.64,2.98-1.64,5.27v15.06h-5.81v-26.9h5.81     v3.23c1.72-2.62,4.28-3.93,7.69-3.93s5.99,1.42,7.64,4.25C609.59,175.64,612.33,174.22,616.06,174.22L616.06,174.22z"></path>				<path style="fill:#90BD1E;" d="M679.96,190.84h-21.41c0.43,2.01,1.41,3.57,2.93,4.68s3.42,1.67,5.68,1.67     c3.05,0,5.36-1.11,6.94-3.33l4.79,2.8c-2.62,3.91-6.55,5.86-11.78,5.86c-4.34,0-7.87-1.33-10.6-3.98     c-2.69-2.69-4.03-6.08-4.03-10.17s1.33-7.33,3.98-10.06c2.62-2.72,6.02-4.09,10.22-4.09c3.91,0,7.14,1.38,9.68,4.14     c2.55,2.76,3.82,6.11,3.82,10.06C680.18,189.14,680.11,189.94,679.96,190.84L679.96,190.84z M658.5,186.11h15.81     c-0.4-2.12-1.28-3.75-2.66-4.89c-1.38-1.15-3.06-1.72-5.03-1.72c-2.15,0-3.95,0.59-5.38,1.78c-1.43,1.18-2.35,2.8-2.74,4.84     V186.11z"></path>				<path style="fill:#90BD1E;" d="M720.95,174.22c3.12,0,5.62,1,7.5,2.99s2.82,4.69,2.82,8.1v16.51h-5.81V185.9     c0-2.01-0.54-3.55-1.61-4.63c-1.08-1.08-2.55-1.61-4.41-1.61c-2.12,0-3.78,0.66-5,1.96c-1.22,1.31-1.83,3.24-1.83,5.78v14.42     h-5.81v-26.9h5.81v3.44C714.4,175.6,717.18,174.22,720.95,174.22L720.95,174.22z"></path>				<path style="fill:#90BD1E;" d="M774.04,174.92v5.59h-6.67v12.91c0,1.11,0.25,1.91,0.75,2.39s1.25,0.75,2.23,0.81     s2.21,0.05,3.69-0.03v5.22c-4.45,0.54-7.64,0.15-9.58-1.16s-2.9-3.72-2.9-7.23v-12.91h-4.95v-5.59h4.95v-5.81l5.81-1.72v7.53     H774.04L774.04,174.92z"></path>				<path style="fill:#90BD1E;" d="M848.97,202.51c-3.62,0-6.7-0.82-9.22-2.45c-2.53-1.63-4.3-3.9-5.3-6.8l5.33-3.12     c1.51,4.23,4.63,6.35,9.36,6.35c2.3,0,4.04-0.45,5.22-1.34c1.18-0.9,1.78-2.1,1.78-3.6s-0.63-2.67-1.88-3.5     c-1.26-0.82-3.48-1.72-6.67-2.69c-3.26-0.97-5.9-2.12-7.91-3.44c-2.44-1.72-3.66-4.25-3.66-7.58s1.18-5.97,3.55-7.91     c2.33-1.97,5.18-2.96,8.55-2.96c2.98,0,5.6,0.73,7.88,2.18s4.03,3.49,5.24,6.11l-5.22,3.01c-1.58-3.51-4.21-5.27-7.91-5.27     c-1.79,0-3.23,0.42-4.3,1.26c-1.08,0.84-1.61,1.98-1.61,3.42s0.54,2.5,1.61,3.31c1.08,0.81,3.07,1.66,5.97,2.56     c1.79,0.61,2.83,0.97,3.12,1.08c0.47,0.14,1.4,0.5,2.8,1.08c1.15,0.47,2.06,0.97,2.74,1.51c2.8,2.19,4.09,4.77,3.87,7.75     c0,3.41-1.24,6.11-3.71,8.12c-2.4,1.97-5.61,2.96-9.63,2.96L848.97,202.51z"></path>				<path style="fill:#90BD1E;" d="M899,194.45l6.88-19.53h6.19l-10.33,27.76c-2.58,6.96-6.96,10.26-13.12,9.9v-5.43     c1.79,0.11,3.24-0.27,4.36-1.13c1.11-0.86,2.04-2.24,2.8-4.14l0.27-0.54l-11.4-26.41H891l8.02,19.53L899,194.45z"></path>				<path style="fill:#90BD1E;" d="M940.85,182.34c0,0.83,0.43,1.5,1.29,2.02s2.12,1.01,3.77,1.48c1.26,0.29,2.35,0.59,3.28,0.92     c0.93,0.32,1.92,0.8,2.96,1.42c1.04,0.63,1.84,1.45,2.39,2.48c0.56,1.02,0.82,2.21,0.78,3.58c0,2.58-1,4.61-3.01,6.08     s-4.5,2.21-7.48,2.21c-2.65,0-4.93-0.56-6.83-1.67s-3.28-2.65-4.14-4.63l5-2.9c0.9,2.58,2.89,3.87,5.97,3.87s4.57-1,4.57-3.01     c0-1.47-1.7-2.62-5.11-3.44c-1.29-0.32-2.38-0.65-3.25-0.97s-1.85-0.79-2.9-1.4c-1.06-0.61-1.87-1.42-2.42-2.42     c-0.56-1-0.82-2.17-0.78-3.5c0-2.47,0.93-4.46,2.8-5.97c1.9-1.51,4.25-2.26,7.05-2.26c2.22,0,4.2,0.49,5.94,1.48     c1.74,0.99,3.07,2.36,4.01,4.12l-4.89,2.74c-0.9-2.04-2.58-3.07-5.06-3.07c-1.15,0-2.09,0.25-2.82,0.75     c-0.74,0.5-1.1,1.2-1.1,2.1L940.85,182.34z"></path>				<path style="fill:#90BD1E;" d="M995.88,174.92v5.59h-6.67v12.91c0,1.11,0.25,1.91,0.75,2.39s1.25,0.75,2.23,0.81     s2.21,0.05,3.69-0.03v5.22c-4.45,0.54-7.64,0.15-9.58-1.16s-2.9-3.72-2.9-7.23v-12.91h-4.95v-5.59h4.95v-5.81l5.81-1.72v7.53     H995.88L995.88,174.92z"></path>				<path style="fill:#90BD1E;" d="M1047.57,190.84h-21.41c0.43,2.01,1.41,3.57,2.93,4.68c1.52,1.11,3.42,1.67,5.68,1.67     c3.05,0,5.36-1.11,6.94-3.33l4.79,2.8c-2.62,3.91-6.55,5.86-11.78,5.86c-4.34,0-7.87-1.33-10.6-3.98     c-2.69-2.69-4.03-6.08-4.03-10.17s1.33-7.33,3.98-10.06c2.62-2.72,6.02-4.09,10.22-4.09c3.91,0,7.14,1.38,9.68,4.14     c2.55,2.76,3.82,6.11,3.82,10.06C1047.79,189.14,1047.72,189.94,1047.57,190.84z M1026.11,186.11h15.81     c-0.4-2.12-1.28-3.75-2.66-4.89c-1.38-1.15-3.06-1.72-5.03-1.72c-2.15,0-3.95,0.59-5.38,1.78c-1.43,1.18-2.35,2.8-2.74,4.84     V186.11z"></path>				<path style="fill:#90BD1E;" d="M1103.78,174.22c3.05,0,5.5,0.99,7.37,2.96c1.86,1.97,2.8,4.63,2.8,7.96v16.68h-5.81v-16.3     c0-1.83-0.47-3.26-1.4-4.3c-0.93-1.04-2.21-1.56-3.82-1.56c-1.83,0-3.26,0.6-4.3,1.8s-1.56,2.97-1.56,5.3v15.06h-5.81v-16.3     c0-1.86-0.44-3.31-1.32-4.33s-2.12-1.53-3.74-1.53c-1.79,0-3.24,0.61-4.33,1.83s-1.64,2.98-1.64,5.27v15.06h-5.81v-26.9h5.81     v3.23c1.72-2.62,4.28-3.93,7.69-3.93s5.99,1.42,7.64,4.25C1097.31,175.64,1100.05,174.22,1103.78,174.22L1103.78,174.22z"></path>				<path style="fill:#90BD1E;" d="M1146.92,182.34c0,0.83,0.43,1.5,1.29,2.02s2.12,1.01,3.77,1.48c1.26,0.29,2.35,0.59,3.28,0.92     c0.93,0.32,1.92,0.8,2.96,1.42c1.04,0.63,1.84,1.45,2.39,2.48c0.56,1.02,0.82,2.21,0.78,3.58c0,2.58-1,4.61-3.01,6.08     s-4.5,2.21-7.48,2.21c-2.65,0-4.93-0.56-6.83-1.67c-1.9-1.11-3.28-2.65-4.14-4.63l5-2.9c0.9,2.58,2.89,3.87,5.97,3.87     s4.57-1,4.57-3.01c0-1.47-1.7-2.62-5.11-3.44c-1.29-0.32-2.38-0.65-3.25-0.97s-1.85-0.79-2.9-1.4     c-1.06-0.61-1.87-1.42-2.42-2.42c-0.56-1-0.82-2.17-0.78-3.5c0-2.47,0.93-4.46,2.8-5.97c1.9-1.51,4.25-2.26,7.05-2.26     c2.22,0,4.2,0.49,5.94,1.48c1.74,0.99,3.07,2.36,4.01,4.12l-4.89,2.74c-0.9-2.04-2.58-3.07-5.06-3.07     c-1.15,0-2.09,0.25-2.82,0.75c-0.74,0.5-1.1,1.2-1.1,2.1L1146.92,182.34z"></path>			</g>			<circle style="fill:#001475;" cx="100.79" cy="100.99" r="13.14"></circle>			<path style="fill:#001475;" d="M201.59,94.27v13.44h-27.2c-3.17,35.4-31.45,63.68-66.87,66.87v27.2H94.08v-40.69    c2.2,0.24,4.43,0.38,6.72,0.38s4.52-0.13,6.72-0.38c28.01-3.09,50.29-25.37,53.38-53.38c0.24-2.2,0.38-4.44,0.38-6.72    s-0.13-4.52-0.38-6.72C160.9,94.27,201.59,94.27,201.59,94.27z"></path>			<path style="fill:#001475;" d="M107.51,0.19v40.72c-2.2-0.27-4.44-0.4-6.72-0.4s-4.52,0.13-6.72,0.4    c-28.01,3.06-50.29,25.35-53.35,53.35c-0.27,2.2-0.4,4.44-0.4,6.72s0.13,4.52,0.4,6.72H0V94.26h27.2    c3.2-35.4,31.47-63.68,66.87-66.87V0.19C94.07,0.19,107.51,0.19,107.51,0.19z"></path>		</g>	</g></g></svg>